# xmcd
#
# Track frame offsets:
#	150
#	12467
#	23837
#	38085
#	51352
#	65713
#	80547
#	90620
#	101481
#	107440
#	120568
#	130997
#	143166
#	151957
#	165771
#
# Disc length: 2336 seconds
#
# Revision: 1
# Processed by: cddbd v1.5.2PL0 Copyright (c) Steve Scherf et al.
# Submitted via: audiograbber 1.83.01
#
DISCID=ba091e0f
DTITLE=varios - Best of Country - CD1
DYEAR=2005
DGENRE=Country
TTITLE0=Johnny Cash - I walk the line
TTITLE1=Tom T.Hall - Ravishing ruby
TTITLE2=B.J. Thomas - I am so lonesome
TTITLE3=Patty Page - Tennesee waltz
TTITLE4=Georg Jones - A good year for the roses
TTITLE5=Frankie Lane - Sixteen tons
TTITLE6=Willie Nelson - Healing hands of time
TTITLE7=Dolly Parton - It wasn´t god who made honky t
TTITLE8=Nashville 10 - Singing my song
TTITLE9=Tex Williams - Smoke smoke smoke
TTITLE10=Johnny Cash - You win again
TTITLE11=Lee Hazlewood - These boots are made for walki
TTITLE12=Willie nelson - Why are you picking on me
TTITLE13=Tom T. Hall - Week in a country jail
TTITLE14=Webb Pierce - In the jailhouse now
EXTD=
EXTT0=
EXTT1=
EXTT2=
EXTT3=
EXTT4=
EXTT5=
EXTT6=
EXTT7=
EXTT8=
EXTT9=
EXTT10=
EXTT11=
EXTT12=
EXTT13=
EXTT14=
PLAYORDER=
